<svg width="240" height="44" viewBox="0 0 240 44" fill="none" xmlns="http://www.w3.org/2000/svg">
<g filter="url(#filter0_d_0_1)">
<path d="M13.524 25.736C12.852 25.9973 12.3293 26.128 11.956 26.128C10.836 26.128 10.2107 25.9693 10.08 25.652C8.21333 20.8547 6.98133 17.7653 6.384 16.384C6.328 16.888 6.17867 18.0547 5.936 19.884C5.432 23.468 5.18 26.4453 5.18 28.816C5.18 29.3947 5.21733 30.1693 5.292 31.14C3.98533 31.14 3.09867 30.9907 2.632 30.692C2.184 30.3747 1.96 29.936 1.96 29.376C1.96 29.1893 2.268 26.6507 2.884 21.76C3.51867 16.8693 3.836 13.4627 3.836 11.54V11.4C3.29467 10.5227 2.72533 9.804 2.128 9.244C2.81867 8.75867 3.64933 8.516 4.62 8.516C5.852 8.516 6.804 9.09467 7.476 10.252C8.148 11.3907 9.464 14.536 11.424 19.688L12.712 22.992C12.824 22.8053 12.992 22.5533 13.216 22.236C17.7707 15.4973 20.1133 10.924 20.244 8.516C20.244 8.53467 20.468 8.56267 20.916 8.6C21.364 8.61867 21.84 8.712 22.344 8.88C22.8667 9.02933 23.24 9.272 23.464 9.608C23.7067 9.92533 23.856 10.2427 23.912 10.56C23.968 10.8587 23.996 11.3813 23.996 12.128C23.996 12.856 23.688 15.3293 23.072 19.548C22.456 23.7667 22.148 26.7253 22.148 28.424C22.148 30.104 22.2787 31.252 22.54 31.868C20.9533 31.4573 19.8707 30.916 19.292 30.244C18.7133 29.5533 18.424 28.6013 18.424 27.388C18.424 26.6787 18.6107 24.9333 18.984 22.152C19.376 19.3707 19.6467 17.1493 19.796 15.488C19.0493 16.776 17.9853 18.54 16.604 20.78C15.2413 23.02 14.42 24.3547 14.14 24.784C13.86 25.1947 13.6547 25.512 13.524 25.736ZM31.1572 25.708C31.1572 26.5853 31.3159 27.304 31.6332 27.864C31.9692 28.4053 32.4359 28.676 33.0332 28.676C33.9106 28.676 34.7412 28.1627 35.5252 27.136C36.3279 26.1093 36.9626 24.7933 37.4292 23.188C37.9146 21.5827 38.1572 20.0613 38.1572 18.624C38.1572 17.168 38.1012 15.992 37.9892 15.096C38.5492 15.0587 38.9412 15.04 39.1652 15.04C40.1172 15.04 40.8359 15.2173 41.3212 15.572C41.8066 15.9267 42.0492 16.5613 42.0492 17.476C42.0492 17.8307 41.8252 19.2773 41.3772 21.816C40.9292 24.336 40.7052 26.3613 40.7052 27.892C40.7052 29.404 40.9946 30.748 41.5732 31.924C40.1732 31.6813 39.1466 31.168 38.4932 30.384C37.8399 29.5813 37.5132 28.4333 37.5132 26.94C37.5132 26.6787 37.5506 26.1747 37.6252 25.428C37.1212 27.2013 36.2252 28.6293 34.9372 29.712C33.6492 30.7947 32.3799 31.336 31.1292 31.336C29.8972 31.336 28.8986 30.8787 28.1332 29.964C27.3866 29.0307 27.0132 27.7147 27.0132 26.016C27.0132 24.3173 27.3119 22.6747 27.9092 21.088C28.5252 19.4827 29.4399 18.1293 30.6532 17.028C31.8666 15.908 33.2199 15.348 34.7132 15.348C35.5719 15.348 36.4492 15.5533 37.3452 15.964C35.4599 16.636 33.9572 17.9613 32.8372 19.94C31.7172 21.9 31.1572 23.8227 31.1572 25.708ZM48.8747 25.344C48.8747 27.5653 49.5467 28.676 50.8907 28.676C51.6 28.676 52.2907 28.2933 52.9627 27.528C53.6347 26.7627 54.176 25.736 54.5867 24.448C55.016 23.16 55.38 21.788 55.6787 20.332C55.996 18.8573 56.2293 17.2987 56.3787 15.656C56.64 12.4827 56.7707 10.0093 56.7707 8.236C56.7707 6.444 56.696 5.1 56.5467 4.204C57.8907 4.50267 58.8333 5.13733 59.3747 6.108C59.916 7.07867 60.1867 8.30133 60.1867 9.776C60.1867 11.2507 59.8693 13.9947 59.2347 18.008C58.6187 22.0213 58.3107 24.952 58.3107 26.8C58.3107 28.648 58.3947 30.216 58.5627 31.504C57.2373 31.1493 56.3227 30.5147 55.8187 29.6C55.3333 28.6667 55.0907 27.5 55.0907 26.1C54.512 27.7053 53.644 28.9747 52.4867 29.908C51.3293 30.8413 50.1347 31.308 48.9027 31.308C47.6707 31.308 46.6627 30.8413 45.8787 29.908C45.1133 28.956 44.7307 27.5653 44.7307 25.736C44.7307 22.8427 45.524 20.36 47.1107 18.288C48.6973 16.1973 50.5733 15.152 52.7387 15.152C53.3547 15.152 54.3253 15.3013 55.6507 15.6C54.4933 15.8987 53.4573 16.4213 52.5427 17.168C51.6467 17.896 50.9467 18.736 50.4427 19.688C49.3973 21.5733 48.8747 23.4587 48.8747 25.344ZM71.9806 14.844C72.5406 14.8067 72.9326 14.788 73.1566 14.788C74.1272 14.788 74.8646 14.9653 75.3686 15.32C75.8726 15.6747 76.1246 16.328 76.1246 17.28C76.1246 17.5787 75.9472 18.8947 75.5926 21.228C75.2379 23.5427 75.0606 25.5307 75.0606 27.192C75.0606 28.8533 75.2379 30.3187 75.5926 31.588C74.1926 31.14 73.2219 30.5053 72.6806 29.684C72.1392 28.8627 71.8686 27.8453 71.8686 26.632C71.8686 26.1653 71.9712 25.1107 72.1766 23.468C71.5979 25.596 70.7112 27.388 69.5166 28.844C68.3406 30.2813 67.2299 31 66.1846 31C64.0379 31 62.9646 29.4507 62.9646 26.352C62.9646 25.3253 63.1139 23.8973 63.4126 22.068C63.7299 20.22 63.8886 18.82 63.8886 17.868C63.8886 16.916 63.7579 15.9547 63.4966 14.984C65.0459 14.984 66.1659 15.1893 66.8566 15.6C67.5659 15.992 67.9206 16.7853 67.9206 17.98C67.9206 18.6147 67.7246 19.8747 67.3326 21.76C66.9406 23.6453 66.7446 25.064 66.7446 26.016C66.7446 27.3973 67.1179 28.088 67.8646 28.088C68.2379 28.088 68.6672 27.836 69.1526 27.332C69.6379 26.8093 70.1046 26.128 70.5526 25.288C71.0006 24.4293 71.3739 23.3653 71.6726 22.096C71.9899 20.808 72.1486 19.5107 72.1486 18.204C72.1486 16.8787 72.0926 15.7587 71.9806 14.844ZM85.405 31C84.8077 31.2613 84.1824 31.392 83.529 31.392C82.8757 31.392 82.5117 31.252 82.437 30.972C82.1384 29.7773 81.793 27.9947 81.401 25.624C81.009 23.2347 80.6077 21.1533 80.197 19.38C79.805 17.588 79.329 16.2347 78.769 15.32C79.7957 14.8347 80.617 14.592 81.233 14.592C81.849 14.592 82.3157 14.732 82.633 15.012C82.9504 15.292 83.2117 15.852 83.417 16.692C83.641 17.5133 83.7997 18.1947 83.893 18.736C84.1544 20.528 84.285 21.5267 84.285 21.732C84.285 21.9373 84.3597 22.7773 84.509 24.252C84.6584 25.708 84.7704 26.6693 84.845 27.136C88.1677 20.696 89.829 16.3933 89.829 14.228C91.3597 15.012 92.125 15.8613 92.125 16.776C92.125 17.5227 91.733 18.6333 90.949 20.108C90.1837 21.564 89.213 23.3373 88.037 25.428C86.8797 27.5 86.0024 29.3573 85.405 31ZM97.6025 25.708C97.6025 26.5853 97.7612 27.304 98.0785 27.864C98.4145 28.4053 98.8812 28.676 99.4785 28.676C100.356 28.676 101.187 28.1627 101.971 27.136C102.773 26.1093 103.408 24.7933 103.875 23.188C104.36 21.5827 104.603 20.0613 104.603 18.624C104.603 17.168 104.547 15.992 104.435 15.096C104.995 15.0587 105.387 15.04 105.611 15.04C106.563 15.04 107.281 15.2173 107.767 15.572C108.252 15.9267 108.495 16.5613 108.495 17.476C108.495 17.8307 108.271 19.2773 107.823 21.816C107.375 24.336 107.151 26.3613 107.151 27.892C107.151 29.404 107.44 30.748 108.019 31.924C106.619 31.6813 105.592 31.168 104.939 30.384C104.285 29.5813 103.959 28.4333 103.959 26.94C103.959 26.6787 103.996 26.1747 104.071 25.428C103.567 27.2013 102.671 28.6293 101.383 29.712C100.095 30.7947 98.8252 31.336 97.5745 31.336C96.3425 31.336 95.3439 30.8787 94.5785 29.964C93.8319 29.0307 93.4585 27.7147 93.4585 26.016C93.4585 24.3173 93.7572 22.6747 94.3545 21.088C94.9705 19.4827 95.8852 18.1293 97.0985 17.028C98.3119 15.908 99.6652 15.348 101.159 15.348C102.017 15.348 102.895 15.5533 103.791 15.964C101.905 16.636 100.403 17.9613 99.2825 19.94C98.1625 21.9 97.6025 23.8227 97.6025 25.708Z" fill="black"/>
<path d="M119.744 31C119.595 31.056 119.221 31.1307 118.624 31.224C118.027 31.336 117.476 31.392 116.972 31.392C116.487 31.392 116.207 31.252 116.132 30.972C115.796 29.8147 115.292 27.556 114.62 24.196C113.948 20.8173 113.267 17.756 112.576 15.012C111.904 12.268 111.251 10.448 110.616 9.552C111.643 9.06667 112.455 8.824 113.052 8.824C113.649 8.824 114.079 8.88933 114.34 9.02C114.601 9.15067 114.853 9.44 115.096 9.888C115.357 10.336 115.581 10.9333 115.768 11.68C116.048 12.8 116.393 14.4613 116.804 16.664C117.215 18.8667 117.448 20.08 117.504 20.304C118.157 23.6267 118.587 25.904 118.792 27.136C120.005 24.5413 121.349 21.0973 122.824 16.804C124.299 12.492 125.036 9.692 125.036 8.404C127.145 8.75867 128.2 9.44933 128.2 10.476C128.2 11.2413 127.668 12.8653 126.604 15.348C125.559 17.812 124.289 20.6587 122.796 23.888C121.321 27.0987 120.304 29.4693 119.744 31ZM135.876 17.084C135.876 17.364 135.642 18.8387 135.176 21.508C134.728 24.1587 134.494 26.352 134.476 28.088C134.476 29.8053 134.588 30.916 134.812 31.42C133.356 31.0467 132.376 30.4867 131.872 29.74C131.368 28.9747 131.116 27.864 131.116 26.408C131.116 25.624 131.265 24.2053 131.564 22.152C131.862 20.0987 132.012 18.5027 132.012 17.364C132.012 16.2253 131.956 15.348 131.844 14.732C132.254 14.6947 132.637 14.676 132.992 14.676C134.074 14.676 134.821 14.8627 135.232 15.236C135.661 15.5907 135.876 16.2067 135.876 17.084ZM136.296 12.212C135.773 12.2867 135.316 12.324 134.924 12.324C133.001 12.324 132.04 11.652 132.04 10.308C132.04 9.82267 132.18 9.16 132.46 8.32C132.982 8.24533 133.44 8.208 133.832 8.208C135.754 8.208 136.716 8.88 136.716 10.224C136.716 10.7093 136.576 11.372 136.296 12.212ZM142.828 25.344C142.828 27.5653 143.5 28.676 144.844 28.676C145.553 28.676 146.244 28.2933 146.916 27.528C147.588 26.7627 148.129 25.736 148.54 24.448C148.969 23.16 149.333 21.788 149.632 20.332C149.949 18.8573 150.182 17.2987 150.332 15.656C150.593 12.4827 150.724 10.0093 150.724 8.236C150.724 6.444 150.649 5.1 150.5 4.204C151.844 4.50267 152.786 5.13733 153.328 6.108C153.869 7.07867 154.14 8.30133 154.14 9.776C154.14 11.2507 153.822 13.9947 153.188 18.008C152.572 22.0213 152.264 24.952 152.264 26.8C152.264 28.648 152.348 30.216 152.516 31.504C151.19 31.1493 150.276 30.5147 149.772 29.6C149.286 28.6667 149.044 27.5 149.044 26.1C148.465 27.7053 147.597 28.9747 146.44 29.908C145.282 30.8413 144.088 31.308 142.856 31.308C141.624 31.308 140.616 30.8413 139.832 29.908C139.066 28.956 138.684 27.5653 138.684 25.736C138.684 22.8427 139.477 20.36 141.064 18.288C142.65 16.1973 144.526 15.152 146.692 15.152C147.308 15.152 148.278 15.3013 149.604 15.6C148.446 15.8987 147.41 16.4213 146.496 17.168C145.6 17.896 144.9 18.736 144.396 19.688C143.35 21.5733 142.828 23.4587 142.828 25.344ZM160.754 22.348C161.37 20.2387 162.331 18.4653 163.638 17.028C164.944 15.572 166.158 14.844 167.278 14.844C168.416 14.844 169.219 15.1893 169.686 15.88C170.171 16.552 170.414 17.476 170.414 18.652C170.414 19.8093 170.227 21.4427 169.854 23.552C169.499 25.6613 169.322 27.2013 169.322 28.172C169.322 29.124 169.443 29.824 169.686 30.272C169.928 30.7013 170.339 31.0747 170.918 31.392C170.675 31.4107 170.33 31.42 169.882 31.42C168.314 31.42 167.194 31.1773 166.522 30.692C165.868 30.2067 165.542 29.3573 165.542 28.144C165.542 27.4533 165.728 26.1093 166.102 24.112C166.475 22.096 166.662 20.5933 166.662 19.604C166.662 18.372 166.288 17.756 165.542 17.756C165.094 17.756 164.599 18.008 164.058 18.512C163.516 19.016 162.994 19.7067 162.49 20.584C162.004 21.4427 161.594 22.5533 161.258 23.916C160.922 25.2787 160.754 26.6413 160.754 28.004C160.754 29.348 160.81 30.3467 160.922 31C160.324 31.0373 159.932 31.056 159.746 31.056C158.682 31.056 157.916 30.8787 157.45 30.524C156.983 30.1507 156.75 29.5627 156.75 28.76C156.75 27.9573 156.908 26.4267 157.226 24.168C158.234 17.224 158.738 11.9507 158.738 8.348C158.738 6.724 158.626 5.632 158.402 5.072C159.802 5.44533 160.754 6.01467 161.258 6.78C161.78 7.52667 162.042 8.59067 162.042 9.972C162.042 10.9053 161.855 12.8653 161.482 15.852C161.127 18.8387 160.884 21.004 160.754 22.348ZM177.528 25.708C177.528 26.5853 177.687 27.304 178.004 27.864C178.34 28.4053 178.807 28.676 179.404 28.676C180.282 28.676 181.112 28.1627 181.896 27.136C182.699 26.1093 183.334 24.7933 183.8 23.188C184.286 21.5827 184.528 20.0613 184.528 18.624C184.528 17.168 184.472 15.992 184.36 15.096C184.92 15.0587 185.312 15.04 185.536 15.04C186.488 15.04 187.207 15.2173 187.692 15.572C188.178 15.9267 188.42 16.5613 188.42 17.476C188.42 17.8307 188.196 19.2773 187.748 21.816C187.3 24.336 187.076 26.3613 187.076 27.892C187.076 29.404 187.366 30.748 187.944 31.924C186.544 31.6813 185.518 31.168 184.864 30.384C184.211 29.5813 183.884 28.4333 183.884 26.94C183.884 26.6787 183.922 26.1747 183.996 25.428C183.492 27.2013 182.596 28.6293 181.308 29.712C180.02 30.7947 178.751 31.336 177.5 31.336C176.268 31.336 175.27 30.8787 174.504 29.964C173.758 29.0307 173.384 27.7147 173.384 26.016C173.384 24.3173 173.683 22.6747 174.28 21.088C174.896 19.4827 175.811 18.1293 177.024 17.028C178.238 15.908 179.591 15.348 181.084 15.348C181.943 15.348 182.82 15.5533 183.716 15.964C181.831 16.636 180.328 17.9613 179.208 19.94C178.088 21.9 177.528 23.8227 177.528 25.708ZM202.638 14.844C203.739 14.844 204.523 15.1893 204.99 15.88C205.475 16.552 205.718 17.476 205.718 18.652C205.718 19.8093 205.531 21.4427 205.158 23.552C204.803 25.6613 204.626 27.2013 204.626 28.172C204.626 29.124 204.747 29.824 204.99 30.272C205.232 30.7013 205.643 31.0747 206.222 31.392C205.979 31.4107 205.634 31.42 205.186 31.42C203.618 31.42 202.498 31.1773 201.826 30.692C201.172 30.2067 200.846 29.3573 200.846 28.144C200.846 27.4533 201.032 26.1093 201.406 24.112C201.779 22.096 201.966 20.5933 201.966 19.604C201.966 18.372 201.592 17.756 200.846 17.756C200.416 17.756 199.931 18.008 199.39 18.512C198.848 19.016 198.326 19.7067 197.822 20.584C197.318 21.4427 196.898 22.5533 196.562 23.916C196.226 25.2787 196.058 26.6413 196.058 28.004C196.058 29.348 196.114 30.3467 196.226 31C195.628 31.0373 195.236 31.056 195.05 31.056C193.986 31.056 193.22 30.8693 192.754 30.496C192.287 30.1227 192.054 29.5067 192.054 28.648C192.054 28.2747 192.25 26.8373 192.642 24.336C193.034 21.8347 193.23 19.8467 193.23 18.372C193.23 16.8787 193.071 15.5067 192.754 14.256C194.116 14.6853 195.068 15.3013 195.61 16.104C196.151 16.888 196.422 17.7933 196.422 18.82C196.422 19.828 196.31 21.004 196.086 22.348C196.702 20.2573 197.672 18.484 198.998 17.028C200.323 15.572 201.536 14.844 202.638 14.844ZM212.829 25.708C212.829 26.5853 212.988 27.304 213.305 27.864C213.641 28.4053 214.108 28.676 214.705 28.676C215.582 28.676 216.413 28.1627 217.197 27.136C218 26.1093 218.634 24.7933 219.101 23.188C219.586 21.5827 219.829 20.0613 219.829 18.624C219.829 17.168 219.773 15.992 219.661 15.096C220.221 15.0587 220.613 15.04 220.837 15.04C221.789 15.04 222.508 15.2173 222.993 15.572C223.478 15.9267 223.721 16.5613 223.721 17.476C223.721 17.8307 223.497 19.2773 223.049 21.816C222.601 24.336 222.377 26.3613 222.377 27.892C222.377 29.404 222.666 30.748 223.245 31.924C221.845 31.6813 220.818 31.168 220.165 30.384C219.512 29.5813 219.185 28.4333 219.185 26.94C219.185 26.6787 219.222 26.1747 219.297 25.428C218.793 27.2013 217.897 28.6293 216.609 29.712C215.321 30.7947 214.052 31.336 212.801 31.336C211.569 31.336 210.57 30.8787 209.805 29.964C209.058 29.0307 208.685 27.7147 208.685 26.016C208.685 24.3173 208.984 22.6747 209.581 21.088C210.197 19.4827 211.112 18.1293 212.325 17.028C213.538 15.908 214.892 15.348 216.385 15.348C217.244 15.348 218.121 15.5533 219.017 15.964C217.132 16.636 215.629 17.9613 214.509 19.94C213.389 21.9 212.829 23.8227 212.829 25.708Z" fill="#3300FF"/>
</g>
<defs>
<filter id="filter0_d_0_1" x="-2.04001" y="4.20399" width="229.761" height="35.72" filterUnits="userSpaceOnUse" color-interpolation-filters="sRGB">
<feFlood flood-opacity="0" result="BackgroundImageFix"/>
<feColorMatrix in="SourceAlpha" type="matrix" values="0 0 0 0 0 0 0 0 0 0 0 0 0 0 0 0 0 0 127 0" result="hardAlpha"/>
<feOffset dy="4"/>
<feGaussianBlur stdDeviation="2"/>
<feComposite in2="hardAlpha" operator="out"/>
<feColorMatrix type="matrix" values="0 0 0 0 0 0 0 0 0 0 0 0 0 0 0 0 0 0 0.25 0"/>
<feBlend mode="normal" in2="BackgroundImageFix" result="effect1_dropShadow_0_1"/>
<feBlend mode="normal" in="SourceGraphic" in2="effect1_dropShadow_0_1" result="shape"/>
</filter>
</defs>
</svg>
